#!OML:ASF E:\I on waltz\AllaLogoMonkeySwing\Project 1\Capture day 1\Session 1\Subject1.ASF
:FULLY-SPECIFIED
:DEGREES
1309
root 0.918151 17.6259 -25.3644 2.1809 0.825659 -0.262163
lowerback 7.60368 -0.11756 -5.10137
upperback 0.498908 -0.535223 1.47502
thorax -3.68988 -0.171339 4.46687
lowerneck -10.6155 2.56878 0.802242
upperneck 15.8245 3.79729 -2.49202
head 6.63265 1.67173 -0.59506
rclavicle 1.37907e-015 1.10325e-014
rhumerus -32.6007 -20.8009 -74.7783
rradius 28.9359
rwrist 0.56144
rhand -2.51774 -398.352
rfingers 7.12502
rthumb 23.1767 -66.9777
lclavicle 1.37907e-015 1.10325e-014
lhumerus -38.2907 25.4686 78.9021
lradius 38.0551
lwrist -3.30547
lhand -7.69929 -15.1419
lfingers 7.12502
lthumb 18.1982 14.0269
rfemur -11.8767 -1.29325 20.4646
rtibia 32.1081
rfoot -21.5918 -6.39547
rtoes 20.9022
lfemur -9.88508 1.40403 -22.1024
ltibia 29.0334
lfoot -22.2687 0.187252
ltoes -27.1545
1310
root 0.903915 17.6284 -25.371 2.14444 0.771975 -0.244806
lowerback 8.23925 -0.0809365 -4.9704
upperback 0.0666511 -0.514428 1.46019
thorax -4.50244 -0.129824 4.38856
lowerneck -10.162 2.4214 0.763019
upperneck 16.4947 3.59534 -2.33711
head 6.76072 1.58216 -0.559887
rclavicle -1.98163e-015 3.57812e-015
rhumerus -32.9833 -20.2367 -74.8681
rradius 28.33
rwrist 1.70268
rhand -3.33685 -397.202
rfingers 7.12502
rthumb 22.3906 -65.9247
lclavicle -1.98163e-015 3.57812e-015
lhumerus -39.03 24.7643 79.0789
lradius 38.7484
lwrist -2.50956
lhand -7.68652 -15.196
lfingers 7.12502
lthumb 18.2105 13.9716
rfemur -11.895 -1.2756 20.4904
rtibia 32.1451
rfoot -21.6186 -6.30196
rtoes 21.1807
lfemur -9.87991 1.30069 -22.0981
ltibia 29.0501
lfoot -22.1084 0.435032
ltoes -27.3884
1311
root 0.889542 17.6295 -25.3772 2.16571 0.653452 -0.256068
lowerback 8.16095 -0.0481517 -4.84624
upperback 0.108134 -0.454127 1.46768
thorax -4.42237 -0.105822 4.31728
lowerneck -10.2343 2.31999 0.617234
upperneck 16.9915 3.45402 -2.10848
head 6.92406 1.51876 -0.472162
rclavicle 1.75179e-015 -4.37326e-015
rhumerus -31.9157 -21.2373 -74.7367
rradius 26.4507
rwrist 3.99449
rhand -3.96188 -395.845
rfingers 7.12502
rthumb 21.7906 -64.6386
lclavicle 1.75179e-015 -4.37326e-015
lhumerus -38.938 24.4107 79.4919
lradius 39.3292
lwrist -2.09751
lhand -7.49952 -15.3052
lfingers 7.12502
lthumb 18.3903 13.8455
rfemur -11.9685 -1.26642 20.5512
rtibia 32.1863
rfoot -21.5928 -6.16981
rtoes 21.4926
lfemur -9.92126 1.25046 -22.0551
ltibia 29.0575
lfoot -21.9925 0.598645
ltoes -27.4623
1312
root 0.875598 17.6261 -25.3852 2.16809 0.579315 -0.122311
lowerback 8.1194 0.0040455 -4.86999
upperback 0.174219 -0.385094 1.43859
thorax -4.3375 -0.0752738 4.29095
lowerneck -10.3355 2.19438 0.469682
upperneck 17.4202 3.27321 -1.86136
head 7.07084 1.43886 -0.381622
rclavicle -2.65874e-015 -1.25234e-014
rhumerus -31.6461 -20.8631 -75.1007
rradius 26.6074
rwrist 4.31685
rhand -4.20575 -396.081
rfingers 7.12502
rthumb 21.5564 -64.9011
lclavicle -2.65874e-015 -1.25234e-014
lhumerus -38.8026 23.9759 79.951
lradius 39.9063
lwrist -1.82167
lhand -7.44116 -15.2602
lfingers 7.12502
lthumb 18.4465 13.8852
rfemur -11.9838 -1.27662 20.4466
rtibia 32.1985
rfoot -21.5894 -6.04543
rtoes 21.706
lfemur -9.9492 1.22964 -22.1671
ltibia 29.0802
lfoot -21.9532 0.697361
ltoes -27.2254
1313
root 0.860722 17.6245 -25.3958 2.10164 0.574568 -0.0460547
lowerback 8.26355 0.0144493 -4.87025
upperback 0.21511 -0.377126 1.44858
thorax -4.37655 -0.0709567 4.30214
lowerneck -10.475 2.09584 0.340268
upperneck 17.8947 3.12601 -1.61546
head 7.24136 1.376 -0.29064
rclavicle 5.14355e-015 -1.10325e-014
rhumerus -31.3124 -20.4511 -75.4292
rradius 26.6273
rwrist 4.34277
rhand -4.41292 -396.329
rfingers 7.12502
rthumb 21.3574 -65.1721
lclavicle 5.14355e-015 -1.10325e-014
lhumerus -38.7679 23.5364 80.364
lradius 40.4739
lwrist -1.56352
lhand -7.40156 -15.3127
lfingers 7.12502
lthumb 18.4846 13.8291
rfemur -11.9329 -1.27549 20.4183
rtibia 32.2037
rfoot -21.6192 -6.04998
rtoes 21.542
lfemur -9.92297 1.19911 -22.1962
ltibia 29.114
lfoot -21.8918 0.799157
ltoes -27.077
